<svg width="24" height="24" viewBox="0 0 24 24" fill="none" xmlns="http://www.w3.org/2000/svg">
<path d="M12 0C5.3724 0 0 5.3724 0 12C0 13.5264 0.314393 15.0732 0.862793 16.4628L1.8 18.3744C2.394 19.6092 2.18521 20.7732 1.38721 22.2C0.946807 22.9896 1.4964 23.9412 2.4 23.9628C3.6204 23.9904 5.5728 23.4888 7.1256 22.9128C8.5572 23.574 10.4016 24 12 24C18.6276 24 24 18.6276 24 12C24 5.3724 18.6276 0 12 0ZM7.2 10.8C7.8624 10.8 8.4 11.3376 8.4 12C8.4 12.6624 7.8624 13.2 7.2 13.2C6.5376 13.2 6 12.6624 6 12C6 11.3376 6.5376 10.8 7.2 10.8ZM12 10.8C12.6624 10.8 13.2 11.3376 13.2 12C13.2 12.6624 12.6624 13.2 12 13.2C11.3376 13.2 10.8 12.6624 10.8 12C10.8 11.3376 11.3376 10.8 12 10.8ZM16.8 10.8C17.4624 10.8 18 11.3376 18 12C18 12.6624 17.4624 13.2 16.8 13.2C16.1376 13.2 15.6 12.6624 15.6 12C15.6 11.3376 16.1376 10.8 16.8 10.8Z" fill="#5B5C5E"/>
</svg>
