<svg width="22" height="24" viewBox="0 0 22 24" fill="none" xmlns="http://www.w3.org/2000/svg">
<path d="M11.0001 0C6.65879 0 3.66681 2.9376 3.66681 7.2C3.66681 7.782 3.66681 8.4 3.66681 9.6C3.66681 10.8 3.46882 11.448 2.78805 12C2.71105 12.0624 2.38838 12.3348 2.29182 12.4128C0.745725 13.668 -0.0132688 14.844 0.00017549 16.8C0.00995319 18.0936 1.09161 19.2132 2.4446 19.2H7.56688C7.56688 19.2 7.33345 19.9332 7.33345 20.4C7.33345 22.3884 8.97488 24 11.0001 24C13.0253 24 14.6667 22.3884 14.6667 20.4C14.6667 19.9332 14.4431 19.2 14.4431 19.2H19.5556C20.9049 19.2036 21.9988 18.1008 22 16.8C22.0024 14.8584 21.2349 13.662 19.7083 12.4128C19.6081 12.33 19.2537 12.0648 19.1742 12C18.5081 11.4552 18.3334 10.8 18.3334 9.6C18.3334 8.1 18.3334 7.2 18.3334 7.2C18.3334 2.9376 15.3414 0 11.0001 0ZM11.0001 19.2C11.6747 19.2 12.2223 19.7376 12.2223 20.4C12.2223 21.0624 11.6747 21.6 11.0001 21.6C10.3254 21.6 9.77787 21.0624 9.77787 20.4C9.77787 19.7376 10.3254 19.2 11.0001 19.2Z" fill="#5B5C5E"/>
</svg>
