<svg width="255" height="94" viewBox="0 0 255 94" fill="none" xmlns="http://www.w3.org/2000/svg">
<g filter="url(#filter0_d_1639_4425)">
<rect x="10" y="6" width="235" height="74" rx="20" fill="white"/>
</g>
<path d="M106.719 31.2305V54.3359H103.621V42.6816H101.539V53.2695H98.4668V31.5605H101.539V40.041H103.621V31.2305H106.719ZM96.5371 33.6172V48.5215H87.3457V33.6172H96.5371ZM90.3672 36.1816V45.9824H93.5156V36.1816H90.3672ZM122.867 33.6426V36.207H118.145C118.221 38.5557 119.998 40.9551 123.705 41.9199L122.207 44.4082C119.541 43.7227 117.662 42.2373 116.596 40.3203C115.555 42.4531 113.663 44.1416 110.908 44.916L109.359 42.4023C113.041 41.3867 114.78 38.7842 114.869 36.207H110.146V33.6426H114.869V31.2559H118.17V33.6426H122.867ZM128.504 31.2559V45.1953H125.254V31.2559H128.504ZM120.633 45.5508C125.533 45.5508 128.555 47.1758 128.58 49.9434C128.555 52.7363 125.533 54.3359 120.633 54.3359C115.707 54.3359 112.686 52.7363 112.686 49.9434C112.686 47.1758 115.707 45.5508 120.633 45.5508ZM120.633 48.0645C117.535 48.0645 115.936 48.6992 115.936 49.9434C115.936 51.2129 117.535 51.873 120.633 51.873C123.73 51.873 125.381 51.2129 125.381 49.9434C125.381 48.6992 123.73 48.0645 120.633 48.0645ZM156.104 31.2559V37.8574H159.049V40.5234H156.104V46.9473H152.854V31.2559H156.104ZM137.365 43.9766C139.054 43.9766 140.983 43.9766 142.977 43.9258V42.6309C140.463 42.2754 138.889 41.0566 138.914 39.2793C138.889 37.1465 141.148 35.8262 144.576 35.8262C147.979 35.8262 150.213 37.1465 150.238 39.2793C150.213 41.0566 148.677 42.2627 146.201 42.6055V43.7988C148.105 43.7227 149.997 43.5703 151.787 43.3418L152.016 45.5762C147.141 46.4395 141.783 46.4902 137.695 46.4902L137.365 43.9766ZM156.104 47.8867V54.3359H152.854V50.375H140.311V47.8867H156.104ZM151.203 32.9316V35.293H137.975V32.9316H142.977V31.0527H146.201V32.9316H151.203ZM144.576 37.9844C142.926 37.9844 141.986 38.3906 142.012 39.2793C141.986 40.1172 142.926 40.5996 144.576 40.5996C146.201 40.5996 147.115 40.1172 147.141 39.2793C147.115 38.3906 146.201 37.9844 144.576 37.9844ZM179.564 31.2305V44.9414H176.34V39.4824H172.734V36.8672H176.34V31.2305H179.564ZM171.668 45.4492C176.594 45.4746 179.615 47.0996 179.641 49.918C179.615 52.7109 176.594 54.3613 171.668 54.3613C166.742 54.3613 163.721 52.7109 163.721 49.918C163.721 47.0996 166.742 45.4746 171.668 45.4492ZM171.668 47.9375C168.596 47.9375 166.945 48.5723 166.945 49.918C166.945 51.2383 168.596 51.8984 171.668 51.8984C174.74 51.8984 176.416 51.2383 176.416 49.918C176.416 48.5723 174.74 47.9375 171.668 47.9375ZM173.42 32.627V35.2168H168.824C168.9 37.9082 170.525 40.625 174.131 41.8184L172.531 44.3574C169.979 43.5322 168.228 41.8564 167.225 39.7617C166.196 42.123 164.355 44.0273 161.613 44.9668L159.938 42.4023C163.733 41.1328 165.435 38.1113 165.523 35.2168H160.877V32.627H173.42ZM200.791 31.2305V40.2695H204.193V42.9355H200.791V54.3359H197.592V31.2305H200.791ZM196.018 34.6836V37.2734H182.434V34.6836H187.664V31.5859H190.914V34.6836H196.018ZM189.289 38.5684C192.666 38.5684 195.18 40.8535 195.18 44.0781C195.18 47.3027 192.666 49.5879 189.289 49.5879C185.887 49.5879 183.373 47.3027 183.373 44.0781C183.373 40.8535 185.887 38.5684 189.289 38.5684ZM189.289 41.1836C187.664 41.209 186.471 42.3008 186.471 44.0781C186.471 45.8809 187.664 46.9473 189.289 46.9219C190.914 46.9473 192.082 45.8809 192.082 44.0781C192.082 42.3008 190.914 41.209 189.289 41.1836ZM224.455 31.2305V54.3359H221.18V31.2305H224.455ZM217.523 33.6426C217.523 40.6504 215.061 46.4648 206.809 50.375L205.107 47.7852C211.074 44.9668 213.702 41.3105 214.223 36.1816H206.352V33.6426H217.523Z" fill="#1E96FC"/>
<path fill-rule="evenodd" clip-rule="evenodd" d="M41.0369 61.2764L48.5225 53.7908V63H57.4778V53.8951L64.8591 61.2764L71.1914 54.9441L63.7241 47.4768H73V38.5216H63.7918L71.1908 31.1226L64.8585 24.7903L57.4778 32.171V23H48.5225V32.2752L41.0376 24.7903L34.7053 31.1226L42.1043 38.5216H33V47.4768H42.1719L34.7046 54.9441L41.0369 61.2764Z" fill="url(#paint0_radial_1639_4425)"/>
<defs>
<filter id="filter0_d_1639_4425" x="0" y="0" width="255" height="94" filterUnits="userSpaceOnUse" color-interpolation-filters="sRGB">
<feFlood flood-opacity="0" result="BackgroundImageFix"/>
<feColorMatrix in="SourceAlpha" type="matrix" values="0 0 0 0 0 0 0 0 0 0 0 0 0 0 0 0 0 0 127 0" result="hardAlpha"/>
<feOffset dy="4"/>
<feGaussianBlur stdDeviation="5"/>
<feComposite in2="hardAlpha" operator="out"/>
<feColorMatrix type="matrix" values="0 0 0 0 0 0 0 0 0 0 0 0 0 0 0 0 0 0 0.25 0"/>
<feBlend mode="normal" in2="BackgroundImageFix" result="effect1_dropShadow_1639_4425"/>
<feBlend mode="normal" in="SourceGraphic" in2="effect1_dropShadow_1639_4425" result="shape"/>
</filter>
<radialGradient id="paint0_radial_1639_4425" cx="0" cy="0" r="1" gradientUnits="userSpaceOnUse" gradientTransform="translate(37.6667 27.6667) rotate(45.6366) scale(42.429 54.8749)">
<stop stop-color="#072AC8"/>
<stop offset="0.408106" stop-color="#2196F3"/>
<stop offset="0.705" stop-color="#9FC9A6"/>
<stop offset="1" stop-color="#FFF16C"/>
</radialGradient>
</defs>
</svg>
