<svg width="235" height="74" viewBox="0 0 235 74" fill="none" xmlns="http://www.w3.org/2000/svg">
<g filter="url(#filter0_i_1752_4417)">
<path d="M0 20C0 8.95431 8.95431 0 20 0H215C226.046 0 235 8.95431 235 20V54C235 65.0457 226.046 74 215 74H20C8.9543 74 0 65.0457 0 54V20Z" fill="white"/>
<path d="M96.7188 25.2305V48.3359H93.6211V36.6816H91.5391V47.2695H88.4668V25.5605H91.5391V34.041H93.6211V25.2305H96.7188ZM86.5371 27.6172V42.5215H77.3457V27.6172H86.5371ZM80.3672 30.1816V39.9824H83.5156V30.1816H80.3672Z" fill="#1E96FC"/>
<path d="M112.867 27.6426V30.207H108.145C108.221 32.5557 109.998 34.9551 113.705 35.9199L112.207 38.4082C109.541 37.7227 107.662 36.2373 106.596 34.3203C105.555 36.4531 103.663 38.1416 100.908 38.916L99.3594 36.4023C103.041 35.3867 104.78 32.7842 104.869 30.207H100.146V27.6426H104.869V25.2559H108.17V27.6426H112.867ZM118.504 25.2559V39.1953H115.254V25.2559H118.504ZM110.633 39.5508C115.533 39.5508 118.555 41.1758 118.58 43.9434C118.555 46.7363 115.533 48.3359 110.633 48.3359C105.707 48.3359 102.686 46.7363 102.686 43.9434C102.686 41.1758 105.707 39.5508 110.633 39.5508ZM110.633 42.0645C107.535 42.0645 105.936 42.6992 105.936 43.9434C105.936 45.2129 107.535 45.873 110.633 45.873C113.73 45.873 115.381 45.2129 115.381 43.9434C115.381 42.6992 113.73 42.0645 110.633 42.0645Z" fill="#1E96FC"/>
<path d="M146.104 25.2559V31.8574H149.049V34.5234H146.104V40.9473H142.854V25.2559H146.104ZM127.365 37.9766C129.054 37.9766 130.983 37.9766 132.977 37.9258V36.6309C130.463 36.2754 128.889 35.0566 128.914 33.2793C128.889 31.1465 131.148 29.8262 134.576 29.8262C137.979 29.8262 140.213 31.1465 140.238 33.2793C140.213 35.0566 138.677 36.2627 136.201 36.6055V37.7988C138.105 37.7227 139.997 37.5703 141.787 37.3418L142.016 39.5762C137.141 40.4395 131.783 40.4902 127.695 40.4902L127.365 37.9766ZM146.104 41.8867V48.3359H142.854V44.375H130.311V41.8867H146.104ZM141.203 26.9316V29.293H127.975V26.9316H132.977V25.0527H136.201V26.9316H141.203ZM134.576 31.9844C132.926 31.9844 131.986 32.3906 132.012 33.2793C131.986 34.1172 132.926 34.5996 134.576 34.5996C136.201 34.5996 137.115 34.1172 137.141 33.2793C137.115 32.3906 136.201 31.9844 134.576 31.9844Z" fill="#1E96FC"/>
<path d="M169.564 25.2305V38.9414H166.34V33.4824H162.734V30.8672H166.34V25.2305H169.564ZM161.668 39.4492C166.594 39.4746 169.615 41.0996 169.641 43.918C169.615 46.7109 166.594 48.3613 161.668 48.3613C156.742 48.3613 153.721 46.7109 153.721 43.918C153.721 41.0996 156.742 39.4746 161.668 39.4492ZM161.668 41.9375C158.596 41.9375 156.945 42.5723 156.945 43.918C156.945 45.2383 158.596 45.8984 161.668 45.8984C164.74 45.8984 166.416 45.2383 166.416 43.918C166.416 42.5723 164.74 41.9375 161.668 41.9375ZM163.42 26.627V29.2168H158.824C158.9 31.9082 160.525 34.625 164.131 35.8184L162.531 38.3574C159.979 37.5322 158.228 35.8564 157.225 33.7617C156.196 36.123 154.355 38.0273 151.613 38.9668L149.938 36.4023C153.733 35.1328 155.435 32.1113 155.523 29.2168H150.877V26.627H163.42Z" fill="#1E96FC"/>
<path d="M190.791 25.2305V34.2695H194.193V36.9355H190.791V48.3359H187.592V25.2305H190.791ZM186.018 28.6836V31.2734H172.434V28.6836H177.664V25.5859H180.914V28.6836H186.018ZM179.289 32.5684C182.666 32.5684 185.18 34.8535 185.18 38.0781C185.18 41.3027 182.666 43.5879 179.289 43.5879C175.887 43.5879 173.373 41.3027 173.373 38.0781C173.373 34.8535 175.887 32.5684 179.289 32.5684ZM179.289 35.1836C177.664 35.209 176.471 36.3008 176.471 38.0781C176.471 39.8809 177.664 40.9473 179.289 40.9219C180.914 40.9473 182.082 39.8809 182.082 38.0781C182.082 36.3008 180.914 35.209 179.289 35.1836Z" fill="#1E96FC"/>
<path d="M214.455 25.2305V48.3359H211.18V25.2305H214.455ZM207.523 27.6426C207.523 34.6504 205.061 40.4648 196.809 44.375L195.107 41.7852C201.074 38.9668 203.702 35.3105 204.223 30.1816H196.352V27.6426H207.523Z" fill="#1E96FC"/>
<path d="M31.0369 55.2764L38.5225 47.7908V57H47.4778V47.8951L54.8591 55.2764L61.1914 48.9441L53.7241 41.4768H63V32.5216H53.7918L61.1908 25.1226L54.8585 18.7903L47.4778 26.171V17H38.5225V26.2752L31.0376 18.7903L24.7053 25.1226L32.1043 32.5216H23V41.4768H32.1719L24.7046 48.9441L31.0369 55.2764Z" fill="url(#paint0_radial_1752_4417)"/>
</g>
<defs>
<filter id="filter0_i_1752_4417" x="-2" y="-2" width="237" height="76" filterUnits="userSpaceOnUse" color-interpolation-filters="sRGB">
<feFlood flood-opacity="0" result="BackgroundImageFix"/>
<feBlend mode="normal" in="SourceGraphic" in2="BackgroundImageFix" result="shape"/>
<feColorMatrix in="SourceAlpha" type="matrix" values="0 0 0 0 0 0 0 0 0 0 0 0 0 0 0 0 0 0 127 0" result="hardAlpha"/>
<feOffset dx="-2" dy="-2"/>
<feGaussianBlur stdDeviation="3.65"/>
<feComposite in2="hardAlpha" operator="arithmetic" k2="-1" k3="1"/>
<feColorMatrix type="matrix" values="0 0 0 0 0 0 0 0 0 0 0 0 0 0 0 0 0 0 0.11 0"/>
<feBlend mode="normal" in2="shape" result="effect1_innerShadow_1752_4417"/>
</filter>
<radialGradient id="paint0_radial_1752_4417" cx="0" cy="0" r="1" gradientUnits="userSpaceOnUse" gradientTransform="translate(27.6667 21.6667) rotate(45.6366) scale(42.429 54.8749)">
<stop stop-color="#072AC8"/>
<stop offset="0.408106" stop-color="#2196F3"/>
<stop offset="0.705" stop-color="#9FC9A6"/>
<stop offset="1" stop-color="#FFF16C"/>
</radialGradient>
</defs>
</svg>
