<svg width="190" height="91" viewBox="0 0 190 91" fill="none" xmlns="http://www.w3.org/2000/svg">
<path d="M43.4382 16.8127V0H47.2022V16.8127H43.4382Z" fill="white"/>
<path d="M53.7265 10.288H36.9138V6.52399H53.7265V10.288Z" fill="white"/>
<path d="M50.3047 16.0882L37.6306 3.41406L40.2922 0.75249L52.9663 13.4266L50.3047 16.0882Z" fill="white"/>
<path d="M40.2919 16.0882L52.966 3.41406L50.3045 0.75249L37.6303 13.4266L40.2919 16.0882Z" fill="white"/>
<path d="M67.8669 16.8127V0H71.6309V16.8127H67.8669Z" fill="white"/>
<path d="M78.1552 10.288H61.3425V6.52399H78.1552V10.288Z" fill="white"/>
<path d="M74.7335 16.0882L62.0593 3.41406L64.7209 0.75249L77.395 13.4266L74.7335 16.0882Z" fill="white"/>
<path d="M64.7206 16.0882L77.3947 3.41406L74.7332 0.75249L62.059 13.4266L64.7206 16.0882Z" fill="white"/>
<path d="M29.6447 31.2796H20.3409V55.4515C20.3409 57.2758 20.7361 58.5528 21.5266 59.2825C22.3172 60.0122 23.4726 60.4075 24.9928 60.4683C26.9387 60.4683 28.7326 60.377 30.3745 60.1946V70.8667C28.763 71.1708 26.361 71.3228 23.1685 71.3228C18.0909 71.3228 14.0927 70.1522 11.1738 67.811C8.25492 65.4699 6.81069 61.9885 6.84109 57.367V31.2796H0V21.1548H6.84109V9.29688H20.3409V21.1548H29.6447V31.2796Z" fill="white"/>
<path d="M39.0508 21.1548H52.5506V70.6843H39.0508V21.1548Z" fill="white"/>
<path d="M63.3358 21.1548H76.8355V70.6843H63.3358V21.1548Z" fill="white"/>
<path d="M101.12 70.6843H87.6207V21.1548H100.482V29.8202H101.029C102.185 26.9013 104.055 24.6209 106.639 22.9791C109.223 21.3372 112.309 20.5163 115.897 20.5163C119.333 20.5163 122.343 21.2612 124.928 22.751C127.512 24.2409 129.503 26.3996 130.902 29.2273C132.301 32.0245 132.985 35.3234 132.954 39.124V70.6843H119.546V41.4956C119.546 38.4551 118.755 36.0684 117.174 34.3353C115.593 32.6022 113.404 31.7357 110.607 31.7357C107.718 31.7357 105.408 32.6478 103.675 34.4721C101.972 36.2964 101.12 38.82 101.12 42.0429V70.6843Z" fill="white"/>
<path d="M165.919 90.2954C161.419 90.2954 157.497 89.6569 154.153 88.3799C150.808 87.1029 148.178 85.2938 146.263 82.9527C144.378 80.6419 143.298 77.9207 143.024 74.789H156.342C156.707 76.7045 157.74 78.1335 159.443 79.076C161.176 80.049 163.426 80.5355 166.193 80.5355C169.507 80.5355 172.076 79.7601 173.901 78.2095C175.755 76.6893 176.683 74.2721 176.683 70.9579V61.9277H176.044C175.01 64.2081 173.308 66.1236 170.936 67.6742C168.595 69.1945 165.585 69.9546 161.906 69.9546C158.075 69.9546 154.639 69.0576 151.599 67.2638C148.558 65.4395 146.156 62.703 144.393 59.0544C142.629 55.4059 141.747 50.9211 141.747 45.6003C141.747 40.1882 142.644 35.5971 144.438 31.8269C146.232 28.0567 148.649 25.229 151.69 23.3439C154.761 21.4588 158.166 20.5163 161.906 20.5163C165.646 20.5163 168.656 21.3828 170.936 23.1159C173.217 24.849 174.919 26.9621 176.044 29.4553H176.591V21.1548H190V71.2316C190 75.3362 188.981 78.8176 186.944 81.6757C184.907 84.5337 182.08 86.6773 178.461 88.1063C174.843 89.5657 170.663 90.2954 165.919 90.2954ZM166.102 59.8298C169.446 59.8298 172.046 58.5984 173.901 56.1356C175.755 53.6424 176.683 50.1914 176.683 45.7827C176.683 41.3132 175.755 37.7862 173.901 35.2018C172.046 32.587 169.446 31.2796 166.102 31.2796C162.757 31.2796 160.173 32.6022 158.349 35.2474C156.524 37.8622 155.612 41.374 155.612 45.7827C155.612 50.1306 156.509 53.5664 158.303 56.09C160.127 58.5832 162.727 59.8298 166.102 59.8298Z" fill="white"/>
</svg>
