<svg width="150" height="53" viewBox="0 0 150 53" fill="none" xmlns="http://www.w3.org/2000/svg">
<path fill-rule="evenodd" clip-rule="evenodd" d="M20 0C8.95431 0 0 8.95431 0 20V33C0 44.0457 8.9543 53 20 53H130C141.046 53 150 44.0457 150 33V20C150 8.95431 141.046 0 130 0H20ZM24.4819 36.4684L29.034 31.9792V37.5021H34.4797V32.0417L38.9684 36.4684L42.8191 32.6709L38.2782 28.1926H43.9189V22.822H38.3193L42.8187 18.3848L38.968 14.5872L34.4797 19.0135V13.5135H29.034V19.076L24.4823 14.5872L20.6316 18.3848L25.131 22.822H19.5946V28.1926H25.1721L20.6312 32.6709L24.4819 36.4684ZM69.7344 35.8867H67.2324V26.4736H65.5508V35.0254H63.0693V17.4912H65.5508V24.3408H67.2324V17.2246H69.7344V35.8867ZM61.5107 31.1904H54.0869V19.1523H61.5107V31.1904ZM56.5273 29.1396H59.0703V21.2236H56.5273V29.1396ZM82.7773 21.2441H78.9629C78.9834 21.8936 79.1611 22.5225 79.4961 23.1309C79.8379 23.7393 80.3403 24.2827 81.0034 24.7612C81.6733 25.2397 82.4902 25.6055 83.4541 25.8584L82.2441 27.8682C81.1914 27.5947 80.2822 27.1743 79.5166 26.6069C78.751 26.0396 78.146 25.3594 77.7017 24.5664C77.271 25.4551 76.6694 26.2207 75.897 26.8633C75.1313 27.499 74.2051 27.9707 73.1182 28.2783L71.8672 26.248C72.8242 25.9814 73.6309 25.5918 74.2871 25.0791C74.9434 24.5664 75.439 23.9785 75.7739 23.3154C76.1089 22.6523 76.29 21.9619 76.3174 21.2441H72.5029V19.1729H76.3174V17.2451H78.9834V19.1729H82.7773V21.2441ZM87.3301 28.5039H84.7051V17.2451H87.3301V28.5039ZM80.9727 28.791C82.2852 28.791 83.4233 28.9312 84.3872 29.2114C85.3511 29.4917 86.0894 29.8984 86.6021 30.4316C87.1216 30.9648 87.3848 31.6006 87.3916 32.3389C87.3848 33.084 87.1216 33.7231 86.6021 34.2563C86.0894 34.7896 85.3511 35.1929 84.3872 35.4663C83.4302 35.7466 82.292 35.8867 80.9727 35.8867C79.6465 35.8867 78.5015 35.7466 77.5376 35.4663C76.5806 35.1929 75.8423 34.7896 75.3228 34.2563C74.8101 33.7231 74.5537 33.084 74.5537 32.3389C74.5537 31.6006 74.8101 30.9648 75.3228 30.4316C75.8423 29.8984 76.584 29.4917 77.5479 29.2114C78.5117 28.9312 79.6533 28.791 80.9727 28.791ZM80.9727 30.8213C79.7217 30.8213 78.7749 30.9512 78.1323 31.2109C77.4966 31.4639 77.1787 31.8398 77.1787 32.3389C77.1787 32.8516 77.4966 33.2412 78.1323 33.5078C78.7749 33.7676 79.7217 33.8975 80.9727 33.8975C82.2236 33.8975 83.1738 33.7676 83.8232 33.5078C84.4795 33.2412 84.8076 32.8516 84.8076 32.3389C84.8076 31.8398 84.4829 31.4639 83.8335 31.2109C83.1841 30.9512 82.2305 30.8213 80.9727 30.8213ZM104.577 24.5254H107.325V26.6787H104.577V35.8867H101.993V17.2246H104.577V24.5254ZM100.722 22.1055H89.75V20.0137H93.9746V17.5117H96.5996V20.0137H100.722V22.1055ZM95.2871 23.1514C96.1895 23.1514 96.9995 23.3428 97.7173 23.7256C98.4419 24.1016 99.0093 24.6279 99.4194 25.3047C99.8364 25.9814 100.045 26.7471 100.045 27.6016C100.045 28.4561 99.8364 29.2217 99.4194 29.8984C99.0093 30.5752 98.4419 31.105 97.7173 31.4878C96.9995 31.8638 96.1895 32.0518 95.2871 32.0518C94.3779 32.0518 93.561 31.8638 92.8364 31.4878C92.1118 31.105 91.541 30.5752 91.124 29.8984C90.7139 29.2217 90.5088 28.4561 90.5088 27.6016C90.5088 26.7471 90.7139 25.9814 91.124 25.3047C91.541 24.6279 92.1118 24.1016 92.8364 23.7256C93.561 23.3428 94.3779 23.1514 95.2871 23.1514ZM95.2871 25.2637C94.8496 25.2705 94.4565 25.3696 94.1079 25.561C93.7661 25.7524 93.4961 26.0225 93.2979 26.3711C93.1064 26.7197 93.0107 27.1299 93.0107 27.6016C93.0107 28.0801 93.1064 28.4937 93.2979 28.8423C93.4961 29.1909 93.7661 29.4575 94.1079 29.6421C94.4565 29.8198 94.8496 29.9053 95.2871 29.8984C95.7246 29.9053 96.1143 29.8198 96.4561 29.6421C96.7979 29.4575 97.0645 29.1909 97.2559 28.8423C97.4473 28.4937 97.543 28.0801 97.543 27.6016C97.543 27.1299 97.4473 26.7197 97.2559 26.3711C97.0645 26.0225 96.7979 25.7524 96.4561 25.561C96.1143 25.3696 95.7246 25.2705 95.2871 25.2637ZM123.69 35.8867H121.045V17.2246H123.69V35.8867ZM118.092 19.1729C118.092 21.1689 117.822 22.9839 117.282 24.6177C116.749 26.2515 115.846 27.752 114.575 29.1191C113.303 30.4795 111.591 31.6689 109.438 32.6875L108.063 30.5957C109.656 29.8438 110.969 29.0063 112.001 28.0835C113.04 27.1606 113.833 26.1387 114.38 25.0176C114.934 23.8896 115.282 22.625 115.426 21.2236H109.068V19.1729H118.092Z" fill="url(#paint0_radial_311_4284)"/>
<defs>
<radialGradient id="paint0_radial_311_4284" cx="0" cy="0" r="1" gradientUnits="userSpaceOnUse" gradientTransform="translate(10.3704 26.3797) scale(110.234 164.685)">
<stop stop-color="#072AC8"/>
<stop offset="0.99" stop-color="#2196F3"/>
</radialGradient>
</defs>
</svg>
